<svg width="19" height="19" viewBox="0 0 19 19" fill="none" xmlns="http://www.w3.org/2000/svg">
<path d="M10.6933 12.9733C10.8654 13.0524 11.0593 13.0704 11.2431 13.0245C11.4268 12.9786 11.5895 12.8715 11.7042 12.7208L12 12.3333C12.1553 12.1263 12.3566 11.9583 12.588 11.8426C12.8194 11.7269 13.0746 11.6667 13.3333 11.6667H15.8333C16.2754 11.6667 16.6993 11.8423 17.0119 12.1548C17.3244 12.4674 17.5 12.8913 17.5 13.3333V15.8333C17.5 16.2754 17.3244 16.6993 17.0119 17.0119C16.6993 17.3244 16.2754 17.5 15.8333 17.5C11.8551 17.5 8.03979 15.9197 5.22674 13.1066C2.4137 10.2936 0.833344 6.47826 0.833344 2.50001C0.833344 2.05798 1.00894 1.63406 1.3215 1.3215C1.63406 1.00894 2.05798 0.833344 2.50001 0.833344H5.00001C5.44204 0.833344 5.86596 1.00894 6.17852 1.3215C6.49108 1.63406 6.66668 2.05798 6.66668 2.50001V5.00001C6.66668 5.25875 6.60644 5.51394 6.49072 5.74537C6.37501 5.97679 6.207 6.1781 6.00001 6.33334L5.61001 6.62584C5.45702 6.74266 5.34919 6.90883 5.30484 7.09614C5.26048 7.28344 5.28233 7.48032 5.36668 7.65334C6.50558 9.96656 8.3787 11.8373 10.6933 12.9733Z" stroke="#99A1AF" stroke-width="1.66667" stroke-linecap="round" stroke-linejoin="round"/>
</svg>
